# xmcd
# Track frame offsets:
# 182
# 10270
# 21647
# 33550
# 43972
# 54925
# 64087
# 74137
# 87867
# 96810
# 106145
# 116635
# 126522
# 138877
# 148665
# 160312
# 173517
# 184480
# 198517
# 208375
# 218990
# 228447
#
# Disc length: 3216 seconds
# Revision: 1
# Processed by: cddbd v1.4PL0 Copyright (c) Steve Scherf et al.
# Submitted via: VisiTrax 2.9.7.197 - For more info visit www.synapsa.com
#
DISCID=550c8e16
DTITLE=Webb Pierce - Honky Tonk Song - 22 Country Hits
DYEAR=1993
DGENRE=
TTITLE0=There Stands The Glass
TTITLE1=Slowly
TTITLE2=Sparkling Brown Eyes
TTITLE3=In The Jailhouse Now
TTITLE4=Why Baby Why
TTITLE5=Honky Tonk Song
TTITLE6=Missing You
TTITLE7=Don't Do It Darlin'
TTITLE8=I Ain't Never
TTITLE9=Is It Wrong (For Loving You)
TTITLE10=Cow Town
TTITLE11=Fool Fool Fool
TTITLE12=A New Love Affair
TTITLE13=Don't Be The One
TTITLE14=I Know (It Was You)
TTITLE15=Just Imagination
TTITLE16=I Love You Dear
TTITLE17=Call Me Your Sweetheart
TTITLE18=I Found A True Love
TTITLE19=I'm Only Wishin'
TTITLE20=Too Late To Worry Now
TTITLE21=I'll Get By Somehow
EXTD=Country Stars CTS 55423 - Made In Belgium\nPerioden 1953 - 1967
EXTT0=
EXTT1=
EXTT2=
EXTT3=
EXTT4=
EXTT5=
EXTT6=
EXTT7=
EXTT8=
EXTT9=
EXTT10=
EXTT11=
EXTT12=
EXTT13=
EXTT14=
EXTT15=
EXTT16=
EXTT17=
EXTT18=
EXTT19=
EXTT20=
EXTT21=
PLAYORDER=
